<?xml version="1.0" encoding="UTF-8" standalone="no"?>
<!-- Created with Inkscape (http://www.inkscape.org/) -->

<svg
   xmlns:dc="http://purl.org/dc/elements/1.1/"
   xmlns:cc="http://creativecommons.org/ns#"
   xmlns:rdf="http://www.w3.org/1999/02/22-rdf-syntax-ns#"
   xmlns:svg="http://www.w3.org/2000/svg"
   xmlns="http://www.w3.org/2000/svg"
   xmlns:sodipodi="http://sodipodi.sourceforge.net/DTD/sodipodi-0.dtd"
   xmlns:inkscape="http://www.inkscape.org/namespaces/inkscape"
   id="svg2"
   version="1.1"
   inkscape:version="0.92.4 (5da689c313, 2019-01-14)"
   xml:space="preserve"
   width="1024"
   height="414"
   viewBox="0 0 959.99998 388.125"
   sodipodi:docname="Godot_logo_borders.svg"
   inkscape:export-filename="C:\Users\massa\projets\Communication\GameIntro\logos\godot_simple.png"
   inkscape:export-xdpi="96"
   inkscape:export-ydpi="96"><metadata
     id="metadata8"><rdf:RDF><cc:Work
         rdf:about=""><dc:format>image/svg+xml</dc:format><dc:type
           rdf:resource="http://purl.org/dc/dcmitype/StillImage" /><dc:title></dc:title></cc:Work></rdf:RDF></metadata><defs
     id="defs6"><clipPath
       clipPathUnits="userSpaceOnUse"
       id="clipPath16"><path
         d="M 0,595.276 H 841.89 V 0 H 0 Z"
         id="path18"
         inkscape:connector-curvature="0" /></clipPath></defs><sodipodi:namedview
     pagecolor="#ffffff"
     bordercolor="#666666"
     borderopacity="1"
     objecttolerance="10"
     gridtolerance="10"
     guidetolerance="10"
     inkscape:pageopacity="0"
     inkscape:pageshadow="2"
     inkscape:window-width="1920"
     inkscape:window-height="1017"
     id="namedview4"
     showgrid="false"
     inkscape:zoom="0.44853737"
     inkscape:cx="385.00653"
     inkscape:cy="305.62207"
     inkscape:window-x="-8"
     inkscape:window-y="-8"
     inkscape:window-maximized="1"
     inkscape:current-layer="g14"
     fit-margin-top="48"
     fit-margin-left="48"
     fit-margin-right="48"
     fit-margin-bottom="48" /><g
     id="g10"
     inkscape:groupmode="layer"
     inkscape:label="godot_engine_logo_2017_curves-01"
     transform="matrix(1.25,0,0,-1.25,-94.249997,597.49874)"><g
       id="g12"><g
         id="g14"
         clip-path="url(#clipPath16)"><path
           inkscape:connector-curvature="0"
           id="path22"
           style="fill:none;fill-opacity:1;fill-rule:nonzero;stroke:#757376;stroke-width:4.49999995;stroke-opacity:1;stroke-miterlimit:4;stroke-dasharray:none"
           d="m 531.44953,355.31567 c -4.08423,0 -7.50567,-1.87642 -10.28128,-5.61794 -2.7609,-3.74492 -4.1487,-9.00093 -4.1487,-15.76463 0,-6.7784 1.31881,-11.96767 3.96208,-15.58365 2.63875,-3.62729 6.10543,-5.43358 10.40569,-5.43358 4.29801,0 7.78957,1.82891 10.4713,5.49918 2.68172,3.6567 4.02541,8.89121 4.02541,15.70581 0,6.80894 -1.3878,12.05024 -4.15435,15.71033 -2.76317,3.65557 -6.19026,5.48448 -10.28015,5.48448 m -0.0622,-67.28977 c -11.95863,0 -21.71057,3.91345 -29.24791,11.73921 -7.52716,7.83254 -11.29244,19.26184 -11.29244,34.28675 0,15.03397 3.80826,26.41689 11.42477,34.168 7.61878,7.74093 17.45329,11.61479 29.50014,11.61479 12.04459,0 21.77391,-3.80374 29.17439,-11.43382 7.41406,-7.61539 11.11487,-19.16005 11.11487,-34.60006 0,-15.45132 -3.78677,-26.94396 -11.36709,-34.48582 -7.58032,-7.52603 -17.34244,-11.28905 -29.30673,-11.28905" /><g
           id="g24"
           transform="matrix(1.1310535,0,0,1.1310535,607.8515,354.43097)"
           style="stroke-width:3.9785916;stroke:#757376;stroke-opacity:1;fill:none;stroke-miterlimit:4;stroke-dasharray:none"><path
             d="m 0,0 v -33.768 c 0,-1.577 0.116,-2.571 0.342,-2.988 0.224,-0.415 0.903,-0.623 2.029,-0.623 4.144,0 7.283,1.548 9.429,4.634 2.151,3.083 3.215,8.216 3.215,15.405 0,7.192 -1.113,11.878 -3.325,14.055 C 9.467,-1.102 5.946,0 1.129,0 Z m -21.675,-52.392 v 67.735 c 0,1.883 0.468,3.369 1.413,4.471 0.939,1.085 2.161,1.636 3.671,1.636 H 2.263 c 11.965,0 21.053,-3.018 27.257,-9.04 6.215,-6.02 9.322,-15.499 9.322,-28.447 0,-27.7 -11.821,-41.547 -35.456,-41.547 h -19.302 c -3.836,0 -5.759,1.727 -5.759,5.192"
             style="fill:none;fill-opacity:1;fill-rule:nonzero;stroke:#757376;stroke-width:3.9785916;stroke-opacity:1;stroke-miterlimit:4;stroke-dasharray:none"
             id="path26"
             inkscape:connector-curvature="0" /></g><g
           id="g28"
           transform="matrix(1.1310535,0,0,1.1310535,700.81066,355.31567)"
           style="stroke-width:3.9785916;stroke:#757376;stroke-opacity:1;fill:none;stroke-miterlimit:4;stroke-dasharray:none"><path
             d="m 0,0 c -3.612,0 -6.645,-1.659 -9.095,-4.967 -2.44,-3.311 -3.662,-7.958 -3.662,-13.938 0,-5.993 1.169,-10.581 3.499,-13.778 2.33,-3.207 5.398,-4.804 9.2,-4.804 3.801,0 6.89,1.617 9.258,4.862 2.372,3.233 3.56,7.861 3.56,13.886 0,6.02 -1.225,10.654 -3.671,13.89 C 6.642,-1.617 3.616,0 0,0 m -0.058,-59.493 c -10.577,0 -19.193,3.46 -25.851,10.379 -6.663,6.925 -9.993,17.03 -9.993,30.314 0,13.292 3.367,23.356 10.1,30.209 6.741,6.844 15.431,10.269 26.086,10.269 10.651,0 19.246,-3.363 25.797,-10.109 6.55,-6.733 9.822,-16.94 9.822,-30.591 0,-13.661 -3.349,-23.822 -10.05,-30.49 -6.699,-6.654 -15.338,-9.981 -25.911,-9.981"
             style="fill:none;fill-opacity:1;fill-rule:nonzero;stroke:#757376;stroke-width:3.9785916;stroke-opacity:1;stroke-miterlimit:4;stroke-dasharray:none"
             id="path30"
             inkscape:connector-curvature="0" /></g><g
           id="g32"
           transform="matrix(1.1310535,0,0,1.1310535,789.01132,291.33514)"
           style="stroke-width:3.9785916;stroke:#757376;stroke-opacity:1;fill:none;stroke-miterlimit:4;stroke-dasharray:none"><path
             d="m 0,0 c 0,-1.496 -3.721,-2.255 -11.176,-2.255 -7.448,0 -11.18,0.759 -11.18,2.255 v 56.681 h -13.545 c -1.281,0 -2.185,1.727 -2.71,5.198 -0.226,1.652 -0.334,3.343 -0.334,5.077 0,1.724 0.108,3.422 0.334,5.077 0.525,3.462 1.429,5.202 2.71,5.202 h 49.112 c 1.279,0 2.179,-1.74 2.712,-5.202 0.221,-1.655 0.335,-3.353 0.335,-5.077 0,-1.734 -0.114,-3.425 -0.335,-5.077 C 15.39,58.408 14.49,56.681 13.211,56.681 H 0 Z"
             style="fill:none;fill-opacity:1;fill-rule:nonzero;stroke:#757376;stroke-width:3.9785916;stroke-opacity:1;stroke-miterlimit:4;stroke-dasharray:none"
             id="path34"
             inkscape:connector-curvature="0" /></g><g
           id="g36"
           transform="matrix(1.1310535,0,0,1.1310535,468.26549,336.71278)"
           style="stroke-width:3.9785916;stroke:#757376;stroke-opacity:1;fill:none;stroke-miterlimit:4;stroke-dasharray:none"><path
             d="m 0,0 c -6.078,0.094 -13.034,-1.173 -13.034,-1.173 v -11.863 h 6.995 l -0.078,-5.288 c 0,-1.959 -1.942,-2.943 -5.815,-2.943 -3.878,0 -7.303,1.642 -10.274,4.917 -2.978,3.279 -4.459,8.072 -4.459,14.388 0,6.329 1.447,10.995 4.345,14.006 2.892,3.008 6.683,4.517 11.346,4.517 1.959,0 3.987,-0.316 6.096,-0.961 2.11,-0.639 3.519,-1.238 4.238,-1.799 0.713,-0.577 1.391,-0.85 2.032,-0.85 0.638,0 1.671,0.746 3.1,2.255 1.431,1.505 2.713,3.786 3.844,6.827 1.126,3.057 1.69,5.4 1.69,7.062 0,1.649 -0.036,2.786 -0.109,3.386 -1.581,1.73 -4.499,3.102 -8.755,4.122 -4.248,1.017 -9.011,1.522 -14.28,1.522 -11.594,0 -20.66,-3.65 -27.207,-10.95 -6.552,-7.303 -9.822,-16.783 -9.822,-28.452 0,-13.701 3.347,-24.087 10.041,-31.162 6.706,-7.074 15.51,-10.607 26.425,-10.607 5.87,0 11.08,0.505 15.632,1.522 4.557,1.013 7.586,2.053 9.093,3.105 l 0.452,35.33 C 11.496,-1.036 6.078,-0.104 0,0"
             style="fill:none;fill-opacity:1;fill-rule:nonzero;stroke:#757376;stroke-width:3.9785916;stroke-opacity:1;stroke-miterlimit:4;stroke-dasharray:none"
             id="path38"
             inkscape:connector-curvature="0" /></g><g
           id="g40"
           transform="matrix(1.1310535,0,0,1.1310535,441.34721,235.75121)"
           style="stroke-width:1.3261972;stroke:#88898c;stroke-opacity:1;fill:none;stroke-miterlimit:4;stroke-dasharray:none;stroke-linejoin:round"><path
             d="m 0,0 c -0.624,-1.28 -1.771,-2.454 -3.449,-3.516 -1.676,-1.069 -3.805,-1.6 -6.391,-1.6 -3.412,0 -6.156,1.075 -8.24,3.249 -2.076,2.157 -3.116,5.266 -3.116,9.323 v 10.116 c 0,3.969 0.98,7.013 2.946,9.138 1.962,2.108 4.59,3.177 7.872,3.177 3.208,0 5.695,-0.844 7.455,-2.513 1.755,-1.675 2.677,-4.015 2.757,-7.003 L -0.21,20.238 h -2.619 c -0.094,2.29 -0.759,4.057 -2.01,5.305 -1.244,1.238 -3.095,1.864 -5.539,1.864 -2.473,0 -4.432,-0.837 -5.866,-2.516 -1.43,-1.675 -2.143,-4.103 -2.143,-7.293 V 7.424 c 0,-3.308 0.771,-5.83 2.311,-7.567 1.54,-1.724 3.616,-2.588 6.236,-2.588 1.913,0 3.451,0.339 4.602,1.033 1.155,0.684 1.956,1.519 2.409,2.51 v 8.861 h -7.06 v 2.463 H 0 Z"
             style="fill:none;fill-opacity:1;fill-rule:nonzero;stroke:#88898c;stroke-width:1.3261972;stroke-opacity:1;stroke-miterlimit:4;stroke-dasharray:none;stroke-linejoin:round"
             id="path42"
             inkscape:connector-curvature="0" /></g><g
           id="g44"
           transform="matrix(1.1310535,0,0,1.1310535,456.01527,232.82495)"
           style="stroke-width:1.3261972;stroke:#88898c;stroke-opacity:1;fill:none;stroke-miterlimit:4;stroke-dasharray:none;stroke-linejoin:round"><path
             d="m 0,0 c 1.553,0 2.936,0.44 4.144,1.336 1.21,0.9 2.058,2.037 2.561,3.422 v 5.468 H 2.213 c -1.91,0 -3.44,-0.541 -4.585,-1.623 C -3.52,7.528 -4.088,6.185 -4.088,4.588 -4.088,3.239 -3.733,2.131 -3.014,1.277 -2.296,0.42 -1.292,0 0,0 M 7.124,-2.04 C 6.984,-1.164 6.875,-0.453 6.806,0.104 6.739,0.671 6.705,1.235 6.705,1.808 5.938,0.554 4.948,-0.486 3.725,-1.301 2.504,-2.122 1.146,-2.529 -0.35,-2.529 c -2.092,0 -3.701,0.648 -4.84,1.946 -1.132,1.303 -1.704,3.059 -1.704,5.276 0,2.343 0.823,4.223 2.473,5.618 1.649,1.395 3.89,2.092 6.709,2.092 h 4.417 v 3.106 c 0,1.786 -0.456,3.193 -1.351,4.21 -0.914,1.004 -2.17,1.512 -3.791,1.512 -1.508,0 -2.752,-0.479 -3.728,-1.45 -0.973,-0.965 -1.456,-2.144 -1.456,-3.549 l -2.623,0.023 -0.046,0.137 c -0.074,1.906 0.647,3.591 2.168,5.084 1.515,1.489 3.459,2.229 5.825,2.229 2.338,0 4.22,-0.711 5.657,-2.128 1.429,-1.431 2.146,-3.471 2.146,-6.124 V 3.057 c 0,-0.903 0.042,-1.78 0.121,-2.617 0.081,-0.848 0.212,-1.665 0.417,-2.48 z"
             style="fill:none;fill-opacity:1;fill-rule:nonzero;stroke:#88898c;stroke-width:1.3261972;stroke-opacity:1;stroke-miterlimit:4;stroke-dasharray:none;stroke-linejoin:round"
             id="path46"
             inkscape:connector-curvature="0" /></g><g
           id="g48"
           transform="matrix(1.1310535,0,0,1.1310535,476.7303,259.10521)"
           style="stroke-width:1.3261972;stroke:#88898c;stroke-opacity:1;fill:none;stroke-miterlimit:4;stroke-dasharray:none;stroke-linejoin:round"><path
             d="m 0,0 0.24,-3.923 c 0.664,1.404 1.554,2.486 2.657,3.255 1.107,0.759 2.41,1.138 3.906,1.138 1.527,0 2.814,-0.444 3.852,-1.343 1.039,-0.896 1.805,-2.252 2.292,-4.074 0.623,1.682 1.505,3.011 2.65,3.973 1.145,0.964 2.534,1.444 4.143,1.444 2.217,0 3.937,-0.897 5.156,-2.692 1.224,-1.799 1.834,-4.559 1.834,-8.288 v -14.765 h -2.823 v 14.814 c 0,3.1 -0.429,5.283 -1.263,6.538 -0.839,1.257 -2.042,1.89 -3.598,1.89 -1.637,0 -2.915,-0.691 -3.834,-2.096 -0.914,-1.405 -1.478,-3.161 -1.683,-5.282 v -0.655 -15.209 H 10.72 v 14.798 c 0,3.027 -0.424,5.194 -1.292,6.488 -0.864,1.294 -2.066,1.936 -3.609,1.936 -1.475,0 -2.668,-0.45 -3.562,-1.342 -0.9,-0.897 -1.54,-2.125 -1.928,-3.683 V -25.275 H -2.477 V 0 Z"
             style="fill:none;fill-opacity:1;fill-rule:nonzero;stroke:#88898c;stroke-width:1.3261972;stroke-opacity:1;stroke-miterlimit:4;stroke-dasharray:none;stroke-linejoin:round"
             id="path50"
             inkscape:connector-curvature="0" /></g><g
           id="g52"
           transform="matrix(1.1310535,0,0,1.1310535,522.82277,256.83868)"
           style="stroke-width:1.3261972;stroke:#88898c;stroke-opacity:1;fill:none;stroke-miterlimit:4;stroke-dasharray:none;stroke-linejoin:round"><path
             d="m 0,0 c -1.758,0 -3.202,-0.802 -4.334,-2.402 -1.133,-1.606 -1.718,-3.585 -1.765,-5.944 h 11.66 v 1.082 c 0,2.086 -0.489,3.823 -1.469,5.201 C 3.106,-0.684 1.745,0 0,0 m 0.397,-23.76 c -2.725,0 -4.954,1.026 -6.685,3.073 -1.726,2.043 -2.591,4.657 -2.591,7.841 v 4.197 c 0,3.19 0.867,5.85 2.602,7.965 1.739,2.105 3.828,3.158 6.277,3.158 2.648,0 4.699,-0.939 6.164,-2.823 1.468,-1.887 2.201,-4.422 2.201,-7.603 v -2.773 H -6.099 v -2.102 c 0,-2.447 0.586,-4.484 1.752,-6.11 1.168,-1.63 2.755,-2.438 4.744,-2.438 1.382,0 2.585,0.244 3.588,0.724 1.003,0.491 1.863,1.179 2.578,2.082 l 1.149,-1.988 C 6.949,-21.525 5.96,-22.307 4.753,-22.887 3.549,-23.464 2.094,-23.76 0.397,-23.76"
             style="fill:none;fill-opacity:1;fill-rule:nonzero;stroke:#88898c;stroke-width:1.3261972;stroke-opacity:1;stroke-miterlimit:4;stroke-dasharray:none;stroke-linejoin:round"
             id="path54"
             inkscape:connector-curvature="0" /></g><g
           id="g56"
           transform="matrix(1.1310535,0,0,1.1310535,558.0805,256.83868)"
           style="stroke-width:1.3261972;stroke:#88898c;stroke-opacity:1;fill:none;stroke-miterlimit:4;stroke-dasharray:none;stroke-linejoin:round"><path
             d="M 0,0 C -1.763,0 -3.21,-0.802 -4.341,-2.402 -5.467,-4.008 -6.053,-5.987 -6.104,-8.346 H 5.559 v 1.082 c 0,2.086 -0.488,3.823 -1.474,5.201 C 3.104,-0.684 1.744,0 0,0 m 0.394,-23.76 c -2.726,0 -4.951,1.026 -6.679,3.073 -1.733,2.043 -2.6,4.657 -2.6,7.841 v 4.197 c 0,3.19 0.871,5.85 2.602,7.965 1.744,2.105 3.834,3.158 6.283,3.158 2.643,0 4.703,-0.939 6.164,-2.823 1.463,-1.887 2.197,-4.422 2.197,-7.603 v -2.773 H -6.104 v -2.102 c 0,-2.447 0.587,-4.484 1.76,-6.11 1.162,-1.63 2.742,-2.438 4.738,-2.438 1.387,0 2.585,0.244 3.585,0.724 1.007,0.491 1.866,1.179 2.589,2.082 l 1.141,-1.988 c -0.764,-0.968 -1.75,-1.75 -2.959,-2.33 -1.204,-0.577 -2.658,-0.873 -4.356,-0.873"
             style="fill:none;fill-opacity:1;fill-rule:nonzero;stroke:#88898c;stroke-width:1.3261972;stroke-opacity:1;stroke-miterlimit:4;stroke-dasharray:none;stroke-linejoin:round"
             id="path58"
             inkscape:connector-curvature="0" /></g><g
           id="g60"
           transform="matrix(1.1310535,0,0,1.1310535,575.91679,259.10521)"
           style="stroke-width:1.3261972;stroke:#88898c;stroke-opacity:1;fill:none;stroke-miterlimit:4;stroke-dasharray:none;stroke-linejoin:round"><path
             d="m 0,0 0.23,-4.178 c 0.674,1.483 1.564,2.634 2.682,3.435 1.108,0.805 2.413,1.213 3.914,1.213 2.258,0 3.988,-0.835 5.189,-2.513 1.214,-1.675 1.815,-4.279 1.815,-7.812 v -15.42 h -2.825 v 15.394 c 0,2.888 -0.423,4.905 -1.264,6.075 -0.836,1.17 -2.065,1.753 -3.665,1.753 -1.435,0 -2.638,-0.466 -3.603,-1.414 C 1.504,-4.406 0.782,-5.657 0.301,-7.234 V -25.275 H -2.504 V 0 Z"
             style="fill:none;fill-opacity:1;fill-rule:nonzero;stroke:#88898c;stroke-width:1.3261972;stroke-opacity:1;stroke-miterlimit:4;stroke-dasharray:none;stroke-linejoin:round"
             id="path62"
             inkscape:connector-curvature="0" /></g><g
           id="g64"
           transform="matrix(1.1310535,0,0,1.1310535,600.8685,242.30884)"
           style="stroke-width:1.3261972;stroke:#88898c;stroke-opacity:1;fill:none;stroke-miterlimit:4;stroke-dasharray:none;stroke-linejoin:round"><path
             d="m 0,0 c 0,-2.565 0.486,-4.605 1.472,-6.123 0.974,-1.532 2.457,-2.288 4.436,-2.288 1.356,0 2.498,0.361 3.435,1.101 0.934,0.74 1.672,1.77 2.218,3.077 v 12.52 c -0.525,1.346 -1.246,2.434 -2.157,3.272 -0.91,0.824 -2.062,1.238 -3.448,1.238 -1.975,0 -3.468,-0.86 -4.46,-2.587 C 0.497,8.48 0,6.224 0,3.454 Z m -2.833,3.454 c 0,3.582 0.723,6.459 2.177,8.627 1.442,2.157 3.448,3.239 6.004,3.239 1.419,0 2.664,-0.346 3.728,-1.04 1.066,-0.681 1.947,-1.678 2.654,-2.946 l 0.274,3.516 h 2.381 v -25.298 c 0,-3.239 -0.751,-5.749 -2.26,-7.525 -1.511,-1.769 -3.657,-2.665 -6.428,-2.665 -0.996,0 -2.067,0.156 -3.212,0.459 -1.147,0.303 -2.162,0.701 -3.052,1.2 l 0.776,2.463 c 0.759,-0.492 1.608,-0.873 2.548,-1.141 0.932,-0.277 1.895,-0.41 2.894,-0.41 2.009,0 3.498,0.645 4.46,1.932 0.966,1.304 1.45,3.19 1.45,5.687 v 3.057 c -0.717,-1.138 -1.597,-2.011 -2.64,-2.614 -1.039,-0.606 -2.253,-0.909 -3.622,-0.909 -2.539,0 -4.53,0.994 -5.968,2.982 C -2.11,-5.948 -2.833,-3.301 -2.833,0 Z"
             style="fill:none;fill-opacity:1;fill-rule:nonzero;stroke:#88898c;stroke-width:1.3261972;stroke-opacity:1;stroke-miterlimit:4;stroke-dasharray:none;stroke-linejoin:round"
             id="path66"
             inkscape:connector-curvature="0" /></g><path
           d="m 627.82321,230.5176 h -3.20089 v 28.58738 h 3.20089 z m 0,36.72644 h -3.20089 v 4.50385 h 3.20089 z"
           style="fill:none;fill-opacity:1;fill-rule:nonzero;stroke:#88898c;stroke-width:1.49999998;stroke-opacity:1;stroke-miterlimit:4;stroke-dasharray:none;stroke-linejoin:round"
           id="path68"
           inkscape:connector-curvature="0" /><g
           id="g70"
           transform="matrix(1.1310535,0,0,1.1310535,638.15379,259.10521)"
           style="stroke-width:1.3261972;stroke:#88898c;stroke-opacity:1;fill:none;stroke-miterlimit:4;stroke-dasharray:none;stroke-linejoin:round"><path
             d="m 0,0 0.23,-4.178 c 0.676,1.483 1.562,2.634 2.678,3.435 1.115,0.805 2.422,1.213 3.916,1.213 2.258,0 3.995,-0.835 5.199,-2.513 1.211,-1.675 1.807,-4.279 1.807,-7.812 v -15.42 h -2.825 v 15.394 c 0,2.888 -0.422,4.905 -1.261,6.075 -0.843,1.17 -2.063,1.753 -3.668,1.753 -1.434,0 -2.635,-0.466 -3.599,-1.414 C 1.51,-4.406 0.785,-5.657 0.306,-7.234 V -25.275 H -2.503 V 0 Z"
             style="fill:none;fill-opacity:1;fill-rule:nonzero;stroke:#88898c;stroke-width:1.3261972;stroke-opacity:1;stroke-miterlimit:4;stroke-dasharray:none;stroke-linejoin:round"
             id="path72"
             inkscape:connector-curvature="0" /></g><path
           inkscape:connector-curvature="0"
           id="path76"
           style="fill:none;fill-opacity:1;fill-rule:nonzero;stroke:#88898c;stroke-width:1.49999998;stroke-opacity:1;stroke-miterlimit:4;stroke-dasharray:none;stroke-linejoin:round"
           d="m 669.70883,256.83868 c -1.99405,0 -3.62842,-0.9071 -4.90199,-2.71679 -1.27696,-1.81647 -1.94315,-4.05483 -1.9997,-6.72298 h 13.19035 v 1.2238 c 0,2.35937 -0.54969,4.32401 -1.66265,5.88261 -1.10956,1.55972 -2.65006,2.33336 -4.62601,2.33336 m 0.45355,-26.87383 c -3.09117,0 -5.60776,1.16046 -7.55657,3.47573 -1.95672,2.31074 -2.93508,5.26731 -2.93508,8.86859 v 4.74703 c 0,3.60806 0.97836,6.61666 2.94074,9.00884 1.9669,2.38087 4.33307,3.57187 7.09736,3.57187 2.99277,0 5.32274,-1.06206 6.98086,-3.19297 1.6536,-2.1343 2.48266,-5.00152 2.48266,-8.5994 v -3.13641 h -16.36521 v -2.37747 c 0,-2.76769 0.66732,-5.07165 1.98726,-6.91074 1.31881,-1.84362 3.10814,-2.75751 5.36798,-2.75751 1.56312,0 2.91699,0.27598 4.04691,0.81888 1.14463,0.55535 2.11394,1.33352 2.93056,2.35486 l 1.29732,-2.24854 c -0.86978,-1.09486 -1.985,-1.97934 -3.35018,-2.63535 -1.36066,-0.65262 -3.00634,-0.98741 -4.92461,-0.98741" /><path
           inkscape:connector-curvature="0"
           id="path84"
           style="fill:none;fill-opacity:1;fill-rule:nonzero;stroke:#478cbf;stroke-width:3.74999996;stroke-opacity:1;stroke-miterlimit:4;stroke-dasharray:none"
           d="m 126.80608,346.04533 v -53.74088 -6.8259 -6.21175 c 0.12215,-10e-4 0.24431,-0.006 0.36533,-0.017 l 40.93961,-3.94737 c 2.14448,-0.20699 3.82523,-1.93297 3.97452,-4.08197 l 1.26226,-18.07198 35.71188,-2.54826 2.46005,16.67965 c 0.31895,2.16257 2.17388,3.76527 4.36134,3.76527 h 43.19267 c 2.18632,0 4.04125,-1.6027 4.36021,-3.76527 l 2.46004,-16.67965 35.71302,2.54826 1.26112,18.07198 c 0.15043,2.149 1.83004,3.87385 3.97452,4.08197 l 40.92378,3.94737 c 0.12102,0.0113 0.24205,0.0158 0.3642,0.017 v 5.32839 l 0.017,0.006 v 61.44448 h 0.15157 c 5.4234,6.92205 10.44188,14.21621 15.25451,21.99786 -6.39158,10.88073 -14.22299,20.6044 -22.59392,29.61324 -7.76355,-3.90779 -15.30429,-8.33473 -22.42653,-13.04557 -3.56395,3.54246 -7.57806,6.44022 -11.52091,9.46918 -3.87386,3.11153 -8.23972,5.39286 -12.38051,8.05084 1.23285,9.18076 1.84248,18.21901 2.08792,27.652 -10.68393,5.37702 -22.07703,8.9421 -33.60133,11.50281 -4.60113,-7.73301 -8.80865,-16.10733 -12.47326,-24.2939 -4.34551,0.72614 -8.71138,0.99533 -13.0829,1.04736 v 0.007 c -0.0305,0 -0.0588,-0.007 -0.0848,-0.007 -0.0271,0 -0.0554,0.007 -0.0826,0.007 v -0.007 c -4.37944,-0.052 -8.74192,-0.32122 -13.08856,-1.04736 -3.66235,8.18657 -7.8676,16.56089 -12.47552,24.2939 -11.51864,-2.56071 -22.91288,-6.12579 -33.59568,-11.50281 0.24431,-9.43299 0.85395,-18.47124 2.09019,-27.652 -4.1487,-2.65798 -8.50892,-4.93931 -12.38391,-8.05084 -3.93719,-3.02896 -7.95809,-5.92672 -11.52317,-9.46918 -7.12224,4.71084 -14.66071,9.13778 -22.42653,13.04557 -8.37092,-9.00884 -16.19781,-18.73251 -22.59166,-29.61324 4.81037,-7.78165 9.83225,-15.07581 15.25452,-21.99786 z" /><path
           inkscape:connector-curvature="0"
           id="path88"
           style="fill:none;fill-opacity:1;fill-rule:nonzero;stroke:#478cbf;stroke-width:3.74999996;stroke-opacity:1;stroke-miterlimit:4;stroke-dasharray:none"
           d="m 311.40329,266.88437 -1.26791,-18.16811 c -0.15269,-2.18972 -1.89452,-3.93268 -4.08424,-4.08989 l -43.60776,-3.11153 c -0.10632,-0.008 -0.21264,-0.0113 -0.31783,-0.0113 -2.1671,0 -4.03673,1.59026 -4.35682,3.76641 l -2.50076,16.95901 h -35.58181 l -2.50076,-16.95901 c -0.33592,-2.28247 -2.37634,-3.92363 -4.67464,-3.7551 l -43.60777,3.11153 c -2.18972,0.15721 -3.93154,1.90017 -4.08423,4.08989 l -1.26791,18.16811 -36.8124,3.54925 c 0.017,-3.95643 0.0679,-8.29063 0.0679,-9.15362 0,-38.87883 49.31959,-57.5661 110.59554,-57.781 h 0.0746 0.0758 c 61.27596,0.2149 110.57858,18.90217 110.57858,57.781 0,0.87883 0.0532,5.19493 0.0713,9.15362 z" /></g></g></g></svg>