<?xml version="1.0" encoding="UTF-8" standalone="no"?>
<!-- Created with Inkscape (http://www.inkscape.org/) -->

<svg
   xmlns:dc="http://purl.org/dc/elements/1.1/"
   xmlns:cc="http://creativecommons.org/ns#"
   xmlns:rdf="http://www.w3.org/1999/02/22-rdf-syntax-ns#"
   xmlns:svg="http://www.w3.org/2000/svg"
   xmlns="http://www.w3.org/2000/svg"
   xmlns:sodipodi="http://sodipodi.sourceforge.net/DTD/sodipodi-0.dtd"
   xmlns:inkscape="http://www.inkscape.org/namespaces/inkscape"
   width="43.982796mm"
   height="19.484905mm"
   viewBox="0 0 43.982795 19.484905"
   version="1.1"
   id="svg8"
   inkscape:version="0.92.4 (5da689c313, 2019-01-14)"
   sodipodi:docname="logoWhite.svg"
   inkscape:export-filename="C:\Users\massa\projets\godot-escape\assets\logo\logoFull.png"
   inkscape:export-xdpi="496.08612"
   inkscape:export-ydpi="496.08612">
  <defs
     id="defs2">
    <filter
       style="color-interpolation-filters:sRGB"
       inkscape:label="Blur"
       id="filter1297">
      <feGaussianBlur
         stdDeviation="1 1"
         result="blur"
         id="feGaussianBlur1295" />
    </filter>
  </defs>
  <sodipodi:namedview
     id="base"
     pagecolor="#0f0f0f"
     bordercolor="#666666"
     borderopacity="1.0"
     inkscape:pageopacity="0"
     inkscape:pageshadow="2"
     inkscape:zoom="2.2387274"
     inkscape:cx="1.9536293"
     inkscape:cy="20.477423"
     inkscape:document-units="mm"
     inkscape:current-layer="layer1"
     showgrid="false"
     inkscape:window-width="1920"
     inkscape:window-height="1017"
     inkscape:window-x="-8"
     inkscape:window-y="-8"
     inkscape:window-maximized="1"
     fit-margin-top="0"
     fit-margin-left="0"
     fit-margin-right="0"
     fit-margin-bottom="0" />
  <metadata
     id="metadata5">
    <rdf:RDF>
      <cc:Work
         rdf:about="">
        <dc:format>image/svg+xml</dc:format>
        <dc:type
           rdf:resource="http://purl.org/dc/dcmitype/StillImage" />
        <dc:title></dc:title>
      </cc:Work>
    </rdf:RDF>
  </metadata>
  <g
     inkscape:label="Texte"
     inkscape:groupmode="layer"
     id="layer1"
     transform="translate(-26.167746,-48.770211)">
    <g
       id="g1237"
       style="fill:#666666;filter:url(#filter1297)"
       inkscape:export-filename="C:\Users\massa\projets\EFTV\eftv-full\eftv-core\assets\logo\png\logoBlur.png"
       inkscape:export-xdpi="432.78629"
       inkscape:export-ydpi="432.78629">
      <g
         id="text817"
         style="font-style:normal;font-weight:normal;font-size:10.58333302px;line-height:125%;font-family:sans-serif;text-align:start;letter-spacing:0px;word-spacing:0px;text-anchor:start;fill:#666666;fill-opacity:1;stroke:none;stroke-width:0.26458332px;stroke-linecap:butt;stroke-linejoin:miter;stroke-opacity:1"
         aria-label="p">
        <path
           sodipodi:nodetypes="sccccccsccssccccccccccccccccccccsccscscsscscsccsccscccccc"
           inkscape:connector-curvature="0"
           id="path240"
           d="m 53.101663,51.751386 c -0.309484,0 -0.605256,0.089 -0.887318,0.266999 -0.278143,0.174366 -0.556287,0.481324 -0.834431,0.920873 v -1.166076 h -0.223299 l -1.657111,0.621181 0.07051,0.174366 c 0.144947,-0.05086 0.264432,-0.07629 0.358452,-0.07629 0.117526,0 0.209587,0.02179 0.276185,0.06539 0.07051,0.04359 0.121445,0.108978 0.152783,0.196162 0.03134,0.08718 0.04702,0.292427 0.04702,0.615732 v 4.718793 c 0,0.363264 -0.02155,0.588486 -0.06464,0.675669 -0.03917,0.09082 -0.09598,0.156206 -0.170413,0.196163 -0.152783,0.07994 -0.336906,0.118083 -0.552369,0.114428 h -0.06464 v -0.0011 h -3.255459 v 0.201612 c 0.242886,0.01816 0.434846,0.05993 0.575876,0.125326 0.144948,0.06176 0.266392,0.148938 0.364329,0.26155 0.06268,0.07265 0.170412,0.272447 0.323195,0.599384 l 2.98515,6.369825 h 0.217423 l 2.779479,-6.288093 c 0.160619,-0.366895 0.344742,-0.639343 0.552371,-0.817342 0.144948,-0.119876 0.358452,-0.203427 0.640513,-0.250652 v -0.201611 h -2.456283 v 5.58e-4 c -0.286399,-8.37e-4 -0.48756,-0.02756 -0.599381,-0.08119 -0.109692,-0.05449 -0.188042,-0.128958 -0.235052,-0.223407 -0.04309,-0.09082 -0.06464,-0.306957 -0.06464,-0.648425 v -1.520257 c 0.195876,0.16347 0.372164,0.27245 0.528865,0.326936 0.211546,0.07629 0.462268,0.114429 0.752163,0.114429 0.665979,0 1.218349,-0.230673 1.657111,-0.692018 0.532783,-0.563057 0.799174,-1.275054 0.799174,-2.135989 0,-0.770118 -0.22134,-1.394932 -0.66402,-1.874439 -0.360411,-0.392339 -0.810927,-0.5885 -1.351544,-0.5885 z m -0.464226,0.790098 c 0.344741,0 0.642472,0.141673 0.893194,0.425018 0.360413,0.410488 0.540618,0.997159 0.540618,1.760012 0,0.672038 -0.158659,1.193321 -0.475978,1.563849 -0.242887,0.283346 -0.560206,0.425019 -0.951958,0.425019 -0.325153,0 -0.595463,-0.07992 -0.810926,-0.239755 C 51.620843,56.315792 51.487648,56.130528 51.4328,55.919835 51.39754,55.792693 51.37991,55.52751 51.37991,55.124288 v -1.863542 c 0.325154,-0.326936 0.558246,-0.523098 0.699276,-0.588487 0.184123,-0.08718 0.370206,-0.130775 0.558247,-0.130775 z m -3.094448,6.911142 2.742459,-0.02753 c 0.81927,0 0.740152,0.838745 0.563535,1.250592 l -1.88041,4.277428 -2.027315,-4.331918 c -0.381023,-0.65057 -0.258439,-1.069376 0.601731,-1.168565 z"
           style="text-align:start;text-anchor:start;fill:#666666;stroke-width:0.28971943px" />
      </g>
      <text
         inkscape:export-ydpi="496.08612"
         inkscape:export-xdpi="496.08612"
         id="text821"
         y="57.255539"
         x="59.630943"
         style="font-style:normal;font-weight:normal;font-size:10.58333302px;line-height:125%;font-family:sans-serif;text-align:start;letter-spacing:0px;word-spacing:0px;text-anchor:start;fill:#666666;fill-opacity:1;stroke:none;stroke-width:0.26458332px;stroke-linecap:butt;stroke-linejoin:miter;stroke-opacity:1"
         xml:space="preserve"><tspan
           style="font-style:normal;font-variant:normal;font-weight:normal;font-stretch:normal;font-size:3.52777767px;font-family:'TeX Gyre Termes Math', 'TeX Gyre Termes';fill:#666666;stroke-width:0.26458332px"
           y="57.255539"
           x="59.630943"
           id="tspan819"
           sodipodi:role="line">from</tspan></text>
      <text
         inkscape:export-ydpi="496.08612"
         inkscape:export-xdpi="496.08612"
         id="text821-9"
         y="61.90493"
         x="42.194794"
         style="font-style:normal;font-weight:normal;font-size:10.58333302px;line-height:125%;font-family:sans-serif;text-align:start;letter-spacing:0px;word-spacing:0px;text-anchor:start;fill:#666666;fill-opacity:1;stroke:none;stroke-width:0.26458332px;stroke-linecap:butt;stroke-linejoin:miter;stroke-opacity:1"
         xml:space="preserve"><tspan
           style="font-style:normal;font-variant:normal;font-weight:normal;font-stretch:normal;font-size:3.52777767px;font-family:'TeX Gyre Termes Math', 'TeX Gyre Termes';fill:#666666;stroke-width:0.26458332px"
           y="61.90493"
           x="42.194794"
           id="tspan819-0"
           sodipodi:role="line">the</tspan></text>
      <g
         id="text817-2"
         style="font-style:normal;font-weight:normal;font-size:10.58333302px;line-height:125%;font-family:sans-serif;text-align:start;letter-spacing:0px;word-spacing:0px;text-anchor:start;fill:#666666;fill-opacity:1;stroke:none;stroke-width:0.26458332px;stroke-linecap:butt;stroke-linejoin:miter;stroke-opacity:1"
         aria-label="V" />
      <text
         id="text18"
         y="62.477085"
         x="32.916435"
         style="font-style:normal;font-weight:normal;font-size:10.58333302px;line-height:1.25;font-family:sans-serif;letter-spacing:0px;word-spacing:0px;fill:#666666;fill-opacity:1;stroke:none;stroke-width:0.26458332"
         xml:space="preserve"><tspan
           style="fill:#666666;stroke-width:0.26458332"
           y="72.132584"
           x="32.916435"
           id="tspan16"
           sodipodi:role="line" /></text>
      <text
         id="text817-2-9"
         y="66.461029"
         x="52.525452"
         style="font-style:normal;font-weight:normal;font-size:10.58333302px;line-height:125%;font-family:sans-serif;text-align:start;letter-spacing:0px;word-spacing:0px;text-anchor:start;fill:#666666;fill-opacity:1;stroke:none;stroke-width:0.26458332px;stroke-linecap:butt;stroke-linejoin:miter;stroke-opacity:1"
         xml:space="preserve"><tspan
           id="tspan859-8"
           style="font-style:normal;font-variant:normal;font-weight:normal;font-stretch:normal;font-family:'TeX Gyre Termes Math', 'TeX Gyre Termes';fill:#666666;stroke-width:0.26458332px"
           y="66.461029"
           x="52.525452"
           sodipodi:role="line">oid</tspan></text>
      <text
         id="text817-5"
         y="57.40012"
         x="29.705978"
         style="font-style:normal;font-weight:normal;font-size:10.58333302px;line-height:125%;font-family:sans-serif;text-align:start;letter-spacing:0px;word-spacing:0px;text-anchor:start;fill:#666666;fill-opacity:1;stroke:none;stroke-width:0.26458332px;stroke-linecap:butt;stroke-linejoin:miter;stroke-opacity:1"
         xml:space="preserve"><tspan
           style="font-style:normal;font-variant:normal;font-weight:normal;font-stretch:normal;font-family:'TeX Gyre Termes Math', 'TeX Gyre Termes';fill:#666666;stroke-width:0.26458332px"
           y="57.40012"
           x="29.705978"
           id="tspan815-4"
           sodipodi:role="line">Esca<tspan
   id="tspan56-9"
   style="fill:#666666;stroke-width:0.26458332px" /></tspan></text>
      <text
         id="text817-9"
         y="57.404663"
         x="59.648109"
         style="font-style:normal;font-weight:normal;font-size:10.58333302px;line-height:125%;font-family:sans-serif;text-align:start;letter-spacing:0px;word-spacing:0px;text-anchor:start;fill:#666666;fill-opacity:1;stroke:none;stroke-width:0.26458332px;stroke-linecap:butt;stroke-linejoin:miter;stroke-opacity:1"
         xml:space="preserve"><tspan
           style="font-style:normal;font-variant:normal;font-weight:normal;font-stretch:normal;font-family:'TeX Gyre Termes Math', 'TeX Gyre Termes';text-align:end;text-anchor:end;fill:#666666;stroke-width:0.26458332px"
           y="57.404663"
           x="59.648109"
           id="tspan815-2"
           sodipodi:role="line">e</tspan></text>
    </g>
  </g>
  <g
     transform="translate(-26.167746,-48.770211)"
     id="g863"
     inkscape:groupmode="layer"
     inkscape:label="Text"
     style="display:inline">
    <g
       id="g833"
       style="font-style:normal;font-weight:normal;font-size:10.58333302px;line-height:125%;font-family:sans-serif;text-align:start;letter-spacing:0px;word-spacing:0px;text-anchor:start;fill:#e6e6e6;fill-opacity:1;stroke:none;stroke-width:0.26458332px;stroke-linecap:butt;stroke-linejoin:miter;stroke-opacity:1"
       aria-label="p">
      <path
         sodipodi:nodetypes="sccccccsccssccccccccccccccccccccsccscscsscscsccsccscccccc"
         inkscape:connector-curvature="0"
         id="path831"
         d="m 53.101663,51.751386 c -0.309484,0 -0.605256,0.089 -0.887318,0.266999 -0.278143,0.174366 -0.556287,0.481324 -0.834431,0.920873 v -1.166076 h -0.223299 l -1.657111,0.621181 0.07051,0.174366 c 0.144947,-0.05086 0.264432,-0.07629 0.358452,-0.07629 0.117526,0 0.209587,0.02179 0.276185,0.06539 0.07051,0.04359 0.121445,0.108978 0.152783,0.196162 0.03134,0.08718 0.04702,0.292427 0.04702,0.615732 v 4.718793 c 0,0.363264 -0.02155,0.588486 -0.06464,0.675669 -0.03917,0.09082 -0.09598,0.156206 -0.170413,0.196163 -0.152783,0.07994 -0.336906,0.118083 -0.552369,0.114428 h -0.06464 v -0.0011 h -3.255459 v 0.201612 c 0.242886,0.01816 0.434846,0.05993 0.575876,0.125326 0.144948,0.06176 0.266392,0.148938 0.364329,0.26155 0.06268,0.07265 0.170412,0.272447 0.323195,0.599384 l 2.98515,6.369825 h 0.217423 l 2.779479,-6.288093 c 0.160619,-0.366895 0.344742,-0.639343 0.552371,-0.817342 0.144948,-0.119876 0.358452,-0.203427 0.640513,-0.250652 v -0.201611 h -2.456283 v 5.58e-4 c -0.286399,-8.37e-4 -0.48756,-0.02756 -0.599381,-0.08119 -0.109692,-0.05449 -0.188042,-0.128958 -0.235052,-0.223407 -0.04309,-0.09082 -0.06464,-0.306957 -0.06464,-0.648425 v -1.520257 c 0.195876,0.16347 0.372164,0.27245 0.528865,0.326936 0.211546,0.07629 0.462268,0.114429 0.752163,0.114429 0.665979,0 1.218349,-0.230673 1.657111,-0.692018 0.532783,-0.563057 0.799174,-1.275054 0.799174,-2.135989 0,-0.770118 -0.22134,-1.394932 -0.66402,-1.874439 -0.360411,-0.392339 -0.810927,-0.5885 -1.351544,-0.5885 z m -0.464226,0.790098 c 0.344741,0 0.642472,0.141673 0.893194,0.425018 0.360413,0.410488 0.540618,0.997159 0.540618,1.760012 0,0.672038 -0.158659,1.193321 -0.475978,1.563849 -0.242887,0.283346 -0.560206,0.425019 -0.951958,0.425019 -0.325153,0 -0.595463,-0.07992 -0.810926,-0.239755 C 51.620843,56.315792 51.487648,56.130528 51.4328,55.919835 51.39754,55.792693 51.37991,55.52751 51.37991,55.124288 v -1.863542 c 0.325154,-0.326936 0.558246,-0.523098 0.699276,-0.588487 0.184123,-0.08718 0.370206,-0.130775 0.558247,-0.130775 z m -3.094448,6.911142 2.742459,-0.02753 c 0.81927,0 0.740152,0.838745 0.563535,1.250592 l -1.88041,4.277428 -2.027315,-4.331918 c -0.381023,-0.65057 -0.258439,-1.069376 0.601731,-1.168565 z"
         style="text-align:start;text-anchor:start;fill:#e6e6e6;stroke-width:0.28971943px" />
    </g>
    <text
       inkscape:export-ydpi="496.08612"
       inkscape:export-xdpi="496.08612"
       id="text837"
       y="57.255539"
       x="59.630943"
       style="font-style:normal;font-weight:normal;font-size:10.58333302px;line-height:125%;font-family:sans-serif;text-align:start;letter-spacing:0px;word-spacing:0px;text-anchor:start;fill:#e6e6e6;fill-opacity:1;stroke:none;stroke-width:0.26458332px;stroke-linecap:butt;stroke-linejoin:miter;stroke-opacity:1"
       xml:space="preserve"><tspan
         style="font-style:normal;font-variant:normal;font-weight:normal;font-stretch:normal;font-size:3.52777767px;font-family:'TeX Gyre Termes Math', 'TeX Gyre Termes';fill:#e6e6e6;stroke-width:0.26458332px"
         y="57.255539"
         x="59.630943"
         id="tspan835"
         sodipodi:role="line">from</tspan></text>
    <text
       inkscape:export-ydpi="496.08612"
       inkscape:export-xdpi="496.08612"
       id="text841"
       y="61.90493"
       x="42.194794"
       style="font-style:normal;font-weight:normal;font-size:10.58333302px;line-height:125%;font-family:sans-serif;text-align:start;letter-spacing:0px;word-spacing:0px;text-anchor:start;fill:#e6e6e6;fill-opacity:1;stroke:none;stroke-width:0.26458332px;stroke-linecap:butt;stroke-linejoin:miter;stroke-opacity:1"
       xml:space="preserve"><tspan
         style="font-style:normal;font-variant:normal;font-weight:normal;font-stretch:normal;font-size:3.52777767px;font-family:'TeX Gyre Termes Math', 'TeX Gyre Termes';fill:#e6e6e6;stroke-width:0.26458332px"
         y="61.90493"
         x="42.194794"
         id="tspan839"
         sodipodi:role="line">the</tspan></text>
    <g
       id="g843"
       style="font-style:normal;font-weight:normal;font-size:10.58333302px;line-height:125%;font-family:sans-serif;text-align:start;letter-spacing:0px;word-spacing:0px;text-anchor:start;fill:#000000;fill-opacity:1;stroke:none;stroke-width:0.26458332px;stroke-linecap:butt;stroke-linejoin:miter;stroke-opacity:1"
       aria-label="V" />
    <text
       id="text847"
       y="62.477085"
       x="32.916435"
       style="font-style:normal;font-weight:normal;font-size:10.58333302px;line-height:1.25;font-family:sans-serif;letter-spacing:0px;word-spacing:0px;fill:#000000;fill-opacity:1;stroke:none;stroke-width:0.26458332"
       xml:space="preserve"><tspan
         style="stroke-width:0.26458332"
         y="72.132584"
         x="32.916435"
         id="tspan845"
         sodipodi:role="line" /></text>
    <text
       id="text851"
       y="66.461029"
       x="52.525452"
       style="font-style:normal;font-weight:normal;font-size:10.58333302px;line-height:125%;font-family:sans-serif;text-align:start;letter-spacing:0px;word-spacing:0px;text-anchor:start;fill:#e6e6e6;fill-opacity:1;stroke:none;stroke-width:0.26458332px;stroke-linecap:butt;stroke-linejoin:miter;stroke-opacity:1"
       xml:space="preserve"><tspan
         id="tspan849"
         style="font-style:normal;font-variant:normal;font-weight:normal;font-stretch:normal;font-family:'TeX Gyre Termes Math', 'TeX Gyre Termes';fill:#e6e6e6;stroke-width:0.26458332px"
         y="66.461029"
         x="52.525452"
         sodipodi:role="line">oid</tspan></text>
    <text
       id="text857"
       y="57.40012"
       x="29.705978"
       style="font-style:normal;font-weight:normal;font-size:10.58333302px;line-height:125%;font-family:sans-serif;text-align:start;letter-spacing:0px;word-spacing:0px;text-anchor:start;fill:#e6e6e6;fill-opacity:1;stroke:none;stroke-width:0.26458332px;stroke-linecap:butt;stroke-linejoin:miter;stroke-opacity:1"
       xml:space="preserve"><tspan
         style="font-style:normal;font-variant:normal;font-weight:normal;font-stretch:normal;font-family:'TeX Gyre Termes Math', 'TeX Gyre Termes';fill:#e6e6e6;stroke-width:0.26458332px"
         y="57.40012"
         x="29.705978"
         id="tspan855"
         sodipodi:role="line">Esca<tspan
   id="tspan853"
   style="fill:#e6e6e6;stroke-width:0.26458332px" /></tspan></text>
    <text
       id="text861"
       y="57.404663"
       x="59.648109"
       style="font-style:normal;font-weight:normal;font-size:10.58333302px;line-height:125%;font-family:sans-serif;text-align:start;letter-spacing:0px;word-spacing:0px;text-anchor:start;fill:#e6e6e6;fill-opacity:1;stroke:none;stroke-width:0.26458332px;stroke-linecap:butt;stroke-linejoin:miter;stroke-opacity:1"
       xml:space="preserve"><tspan
         style="font-style:normal;font-variant:normal;font-weight:normal;font-stretch:normal;font-family:'TeX Gyre Termes Math', 'TeX Gyre Termes';text-align:end;text-anchor:end;fill:#e6e6e6;stroke-width:0.26458332px"
         y="57.404663"
         x="59.648109"
         id="tspan859"
         sodipodi:role="line">e</tspan></text>
  </g>
</svg>
